<?xml version="1.0" encoding="UTF-8"?>
<svg id="Layer_2" data-name="Layer 2" xmlns="http://www.w3.org/2000/svg" viewBox="0 0 178.26 171.32">
  <defs>
    <style>
      .cls-1 {
        fill: #231f20;
        stroke: #231f20;
        stroke-miterlimit: 10;
        stroke-width: 2px;
      }
    </style>
  </defs>
  <g id="Layer_1-2" data-name="Layer 1">
    <path class="cls-1" d="m88.69,81.14h-20.83s-.53.01-.53.01v-8.25s0-.85,0-.85l-.07-61.24h0c-2.22.55-5.1,1.43-7.25,2.17h0C31.64,24.01,14.44,47.4,10.1,71.72v.34l41.24-.02h.28s0-28.52,0-28.52l-.02-.39c-1.71,1.42-2.19,1.85-3.71,3.47l-.87.92v17.38h-19.83l.09-.26c5.48-16.47,17.67-29.56,33.42-36.48h0v52.96h0l-59.71-.05v-.5C3.11,38.86,35.36,5.6,76.41,1.12v.48s0,70.46,0,70.46h1.6s10.68,0,10.68,0h11.56s1.6,0,1.6,0V1.6s0-.48,0-.48c41.05,4.48,73.29,37.74,75.41,79.46v.5s-59.71.05-59.71.05h0V28.17h0c15.75,6.92,27.94,20.02,33.42,36.48l.09.26h-19.83v-17.38l-.87-.92c-1.52-1.62-2-2.05-3.71-3.47l-.02.39v28.52s.28,0,.28,0l41.24.02v-.34c-4.34-24.32-21.54-47.71-49.91-58.75h0c-2.14-.74-5.02-1.62-7.25-2.17h0l-.07,61.24v9.1s-.53,0-.53,0h-20.83s-.88-.01-.88-.01Z"/>
    <path class="cls-1" d="m88.69,88.92h-20.83s-.53-.01-.53-.01v8.38s0,.86,0,.86l-.07,62.2h0c-2.22-.56-5.1-1.45-7.25-2.2h0c-28.37-11.21-45.57-34.97-49.91-59.67v-.35l41.24.02h.28s0,28.97,0,28.97l-.02.39c-1.71-1.44-2.19-1.88-3.71-3.53l-.87-.93v-17.65h-19.83l.09.27c5.48,16.72,17.67,30.02,33.42,37.06h0v-53.79h0l-59.71.05v.51c2.11,42.37,34.36,76.15,75.41,80.7v-.49s0-71.56,0-71.56h1.6s10.68,0,10.68,0h11.56s1.6,0,1.6,0v71.56s0,.49,0,.49c41.05-4.55,73.29-38.34,75.41-80.7v-.51s-59.71-.05-59.71-.05h0v53.79h0c15.75-7.03,27.94-20.33,33.42-37.06l.09-.27h-19.83v17.65l-.87.93c-1.52,1.64-2,2.09-3.71,3.53l-.02-.39v-28.97s.28,0,.28,0l41.24-.02v.35c-4.34,24.7-21.54,48.46-49.91,59.67h0c-2.14.75-5.02,1.64-7.25,2.2h0l-.07-62.2v-9.24s-.53,0-.53,0h-20.83s-.88.01-.88.01Z"/>
  </g>
</svg>