<?xml version="1.0" encoding="UTF-8"?>
<svg id="Layer_1" data-name="Layer 1" xmlns="http://www.w3.org/2000/svg" viewBox="0 0 20.57 22.12">
  <defs>
    <style>
      .cls-1 {
        fill: #010101;
      }
    </style>
  </defs>
  <path class="cls-1" d="m17.45,15.78c.35.52.69,1.09.76,1.73.1,1.21-.82,2.18-1.65,2.92-.56.49-1.12.98-1.68,1.48-.15.13-.31.25-.48.19-.08-.03-.15-.09-.21-.16C9.45,16.9,4.86,11.68.4,6.29c-.18-.22-.38-.47-.4-.79,0-.3.15-.57.3-.79C1.25,3.25,2.34,1.93,3.54.73c.68-.68.94-1.06,1.68-.35.64.63,1.25,1.32,1.86,2,2.37,2.63,4.64,5.41,6.78,8.29,1.23,1.66,2.42,3.36,3.57,5.11h.02Z"/>
  <path class="cls-1" d="m6.52,20.7c-.46.38-.95.76-1.5.79-1.02.05-1.78-1.1-2.34-2.14-.38-.69-.76-1.39-1.14-2.08-.1-.17-.2-.38-.13-.58.03-.09.08-.17.15-.24C6.09,11.13,10.75,5.99,15.56,1.04c.2-.2.43-.43.69-.41.25,0,.46.2.64.41,1.17,1.23,2.21,2.6,3.13,4.1.53.85.82,1.2.18,2.02-.56.73-1.2,1.4-1.79,2.08-2.35,2.65-4.82,5.17-7.39,7.53-1.47,1.36-2.98,2.66-4.51,3.92h.02Z"/>
</svg>