<?xml version="1.0" encoding="UTF-8"?>
<svg xmlns="http://www.w3.org/2000/svg" viewBox="0 0 314.04 188.22">
  <defs>
    <style>
      .cls-1, .cls-2 {
        fill: #fff;
      }

      .cls-3 {
        fill: #3d3d3d;
      }

      .cls-2 {
        opacity: .39;
      }

      .cls-4 {
        opacity: .65;
      }

      .cls-5 {
        letter-spacing: -.01em;
      }

      .cls-6 {
        font-family: CarterOne, 'Carter One';
        font-size: 63.21px;
        stroke: #f1f2f2;
        stroke-miterlimit: 10;
        stroke-width: 3px;
      }

      .cls-7 {
        fill: none;
      }

      .cls-8 {
        opacity: .42;
      }

      .cls-9 {
        fill: #6fccdd;
      }

      .cls-10 {
        fill: #ed186a;
      }

      .cls-11 {
        fill: #ed1f24;
      }

      .cls-12 {
        letter-spacing: -.01em;
      }
    </style>
  </defs>
  <g id="Layer_1" data-name="Layer 1">
    <text class="cls-6" transform="translate(86.54 91.11) scale(.89 1)"><tspan class="cls-9"><tspan x="0" y="0">HYPE</tspan></tspan><tspan class="cls-10"><tspan class="cls-5" x="-63.45" y="54">C</tspan><tspan x="-24.37" y="54" xml:space="preserve">H     R</tspan><tspan class="cls-12" x="134.99" y="54">M</tspan><tspan x="187.71" y="54">S</tspan></tspan></text>
  </g>
  <g id="Layer_7" data-name="Layer 7">
    <path d="m117.83,125.9c-.28.04-.59.11-.76.34-.17.25-.1.6.07.84s.44.4.7.55c1.16.7,2.26,1.51,3.27,2.42-.98-.29-1.91-.72-2.75-1.3.83.14,1.62.47,2.32.95-.12-.09-.3.06-.3.21s.11.28.21.4c.26.3.52.6.79.89-.83-.63-1.67-1.28-2.64-1.67-.2-.08-.44-.14-.6,0-.09.08-.12.2-.14.31-.07.53.2,1.03.47,1.49.62,1.04,1.28,2.06,1.98,3.04-3.04-2.23-4.53-6.02-7.15-8.73,2.98.28,5.96-.39,8.87-1.06-1.5.63-2.74,1.07-4.35,1.32Z"/>
    <path class="cls-1" d="m122.24,155.56c-.42-1.12-.89-2.36-1.82-2.86-1.02-.55-2.19-.02-3.3.18-2.98.52-5.82-1.47-8.38-3.38-1.86-1.39-3.8-2.88-4.86-5.19-.82-1.79-1.03-3.89-1.07-5.93-.07-3.47.27-6.94.9-10.32.56-3.01,1.79-6.46,4.32-6.98,1.5-.31,2.94,1.44,4.22,1.1s1.46-2.88,1.56-4.14c.35-4.1-.59-8.18-.61-12.28,0-.84.04-1.71.36-2.46.51-1.19,1.6-1.81,2.62-2.36,2.93-1.57,5.85-3.14,8.78-4.71,2.74-1.47,6.94-3.2,7.9-6.62.78-2.78-1.27-6.02-2.83-8.27,4.1-1.51,8.97,1.11,10.76,5.81,1.52-.04,2.97-1.28,3.5-2.99,1.45,3.07,1.88,6.81,1.18,10.24.98-1.69,2.72-2.4,4.27-3.28s3.16-2.3,3.3-4.35c.35,2.73.09,5.57-.74,8.14,3.09,1.31,6.12,2.8,9.1,4.45-2.97,7.34-3.97,15.8-2.82,23.85,3.82-2.88,9.16-1.35,12.35,2.48,3.19,3.83,4.53,9.41,4.8,14.82.15,2.9-.03,6.02-1.46,8.36-1.4,2.3-3.77,3.45-6.09,4.06-3.56.93-7.31.85-10.84-.25"/>
    <path class="cls-3" d="m128.89,130.22c5.03-1.96,5.73-4.45,10.97-3.61,4.19.67,10.44,5.95,14.38,7.78,2.96,1.37,5.56,3.22,8.59,4.32-2.57.09-4.93,1.67-7.06,3.38-2.14,1.72-4.22,3.64-6.66,4.59-1.67.65-3.44.81-5.2.92-4.65.3-9.32.32-13.95-.26-1.7-.21-3.4-.51-5.02-1.16-1.52-.61-2.93-1.53-4.34-2.45-1.8-1.08-3.55-2.3-5.31-3.45-1.47-.96-2.79-2.15-4.76-3.18,1.5.16,1.62.03,2.37,0,1.51-.06,3.02-.36,4.49-.73,3.02-.75,8.57-5.01,11.5-6.15Z"/>
    <path class="cls-9" d="m134.84,91.1c-.18,1.27-.6,2.51-1.29,3.5-.84,1.2-2.02,1.98-3.2,2.65-2.13,1.19-4.37,2.09-6.61,2.93-1.89.71-3.9,1.49-5.12,3.35-1.35,2.07-1.37,4.94-1.34,7.57.04,2.45.07,4.9.11,7.34.03,1.95.05,3.96-.53,5.78-.05.16-.12.34-.24.42-.14.09-.31.05-.46,0-1.12-.32-2.23-.63-3.35-.95,1.25-4.2,1.35-8.88.28-13.15-.49-1.98-1.24-3.98-.97-6.01.29-2.13,1.66-3.85,3.24-4.87s3.35-1.49,5.08-2.05c2.84-.92,5.62-2.13,8.29-3.61,1.13-.62,2.29-1.35,2.96-2.6.34-.62.53-1.33.68-2.05.52-2.59-.36-6.37-2.37-7.93,2.93,1.64,5.39,5.81,4.85,9.67Z"/>
    <path class="cls-9" d="m110.5,127.24c-.48.36-.86.9-1.19,1.45-1.19,1.95-2.06,4.19-2.53,6.54-.3,1.5-.45,3.07-.27,4.6.16,1.39.58,2.71,1.02,4,.45,1.33.93,2.69,1.73,3.76,1.19,1.58,2.95,1.78,4.68,2.24s5.14.85,7.93-.79c4.11,6.27-7.15,3.19-9.31,2.44-2.01-.71-4.02-1.51-5.81-2.81s-3.37-3.14-4.18-5.46c-.65-1.85-.77-3.91-.65-5.92.33-5.16,2.36-10.13,5.56-13.59.55-.59,1.17-1.17,1.9-1.28.45-.07.9.04,1.34.16,1.09.28,8.22,2.99,8.22,2.99-2.35,1.76-7.3.84-8.44,1.68Z"/>
    <path class="cls-9" d="m144.19,87.43c-.04,1.04-.39,2.07-.98,2.83s-1.19,1.18-2.06,1.29c.22-1.15-.11-2.3-.53-3.37-.03-.07-.05-.14-.03-.21.02-.09.11-.12.18-.15.64-.24,1.24-.63,1.77-1.13.74-.7.99-1.41.91-2.54.45.89.78,2.25.75,3.28Z"/>
    <path class="cls-9" d="m148.46,93.56c.84-.61,1.74-1.14,2.45-1.96,1.04-1.19,1.59-2.08,1.91-3.76-.58,1.51-1.74,1.79-2.94,2.62s-2.49,1.48-3.6,2.48c-.55.5-1.05,1.09-1.37,1.82-.2.47-.38,1.83-.21,2.36,0,0,.81-.96,1.19-1.4.86-1,1.55-1.42,2.57-2.17Z"/>
    <path class="cls-1" d="m123.65,135.56c-.7.48-3.07,1.6-3.25,2.55-.18.93,2.79.85,4.6,2.13,2.36,1.67,3.19,3.76,5.8,4.37,3.86.9,7.8,1.25,11.72,1.6-1.06.65-2.29.69-3.48.71-2.9.05-5.82.09-8.69-.38-1.99-.33-3.96-.91-5.86-1.73-2.14-.93-4.19-2.16-6.23-3.39-1.14-.68-2.28-1.37-3.41-2.05-1.18-.71-2.36-1.42-3.54-2.13,3.49.03,7.67-.47,10.71-2.36,3.44-2.14,6.26-4.6,9.51-5.91.88-.36,1.9-1.25,2.78-1.61.59-.24,3.3-.36,3.9-.27-4.07.94-5.88,2.02-6.44,2.4-2.31,1.57-2.82,1.94-3.84,2.63-2.05,1.4-1.97,1.85-4.29,3.44Z"/>
    <path d="m153.56,136.11c.29.25.59.92.46,1.32-.11.35-2.19,1.05-2.45,1.27-.51.43-1.16,1.11-1.16,1.85s-.26,1.24-.39,1.97c-.17,1-.71,1.5-1.44,2.02s-1.56.78-2.39.95c-1.54.31-3.26.49-5.45.68.17.51-.09.45.36.51,3.69.45,7.59.86,10.93-1.07.81-.47,1.56-1.06,2.31-1.64,2.67-2.06,5.39-4.02,8.16-5.87-.43.29-2.24-.6-2.75-.77-.98-.31-1.76-1.28-2.73-1.64-1.93-.73-3.65-3.34-5.55-4.16-3.7-1.59-8.53-4.57-12.46-5.09-1.04,0,.33.62,2.25,1.24,5.92,1.91,6.05,3.09,12.31,8.45Z"/>
    <path class="cls-10" d="m151.94,99.51c.17-.09.34-.18.53-.16.14.01.28.1.4.18,1.17.75,2.34,1.51,3.51,2.26-.94.54-1.51,1.77-1.68,3.01s-.15,3.01-.17,4.27c-.09,6.04.97,9.83,2.19,14.79.66-1.78,1.52.41,1.36-1.54-.15-1.79-.24-8.07-.07-9.85.17-1.74.34-3.51.9-5.13.79-2.28,2.28-4.08,3.73-5.82-2.87-2.49-5.99-4.55-9.28-6.12l-2.76,2.93c-.59.63-1.35,1.31-3.5,2.34,1.28.1,3.67-.54,4.84-1.15Z"/>
    <path class="cls-10" d="m160.36,125.07c1.2-.1,2.42-.2,3.6.09,2.97.73,5.23,3.9,6.07,7.4.84,3.5.47,7.26-.29,10.79-.45,2.09-1.1,4.25-2.48,5.63-1.97,1.97-9.37.65-11.92.38,1.37-4.35.43.48,2.34-3.56-2.46,2.58,1.8-3.28,0,0-.84,1.52-3.63,3.66-3.64,5.49,3.97,1.29,10.97,1.55,14.83-.16,1.08-.48,2.14-1.08,2.97-2.03,1.59-1.81,2.1-4.57,2.39-7.18.18-1.63.31-3.28.37-4.93.06-1.43.07-2.89-.24-4.28-.29-1.28-.85-2.44-1.42-3.57-.68-1.36-1.4-2.72-2.36-3.82-2.27-2.59-5.65-3.4-8.76-2.98-2.72.36-6.74,2.33-9.35,3.43,2.3.15,5.57-.53,7.89-.72Z"/>
    <path d="m109.1,118.9c-2.12,2.94-4.95,5.06-6.83,8.24-2.9,4.92-3.03,11.79-1.25,17.48.51,1.62,1.17,3.19,2.12,4.46,1.21,1.62,2.84,2.66,4.49,3.47,4.31,2.1,12.76,2.23,17.34,1.36-.23-.87-1.48-1.55-1.97-2.23-2.32-.16-7.44-.13-9.72-.7-2.22-.55-4.48-1.34-6.23-3.13-2.64-2.72-3.61-7.43-2.97-11.61.64-4.19,2.68-7.88,5.16-10.82.29-.34.59-.68.97-.81.46-.15.95.03,1.41.2,2.44.88,5,1.21,7.53.96-1.33-.24-3.79-2.12-4.6-2.86,0,0,.43-3.43.38-4.3-.26-4.27-.52-6.2-.79-10.47-.1-1.59.05-3.04.67-4.43.8-1.76,2.48-2.51,4.02-3.13,2.62-1.04,5.24-2.09,7.86-3.13,2.9-1.16,6.15-2.7,7.29-6.22,1.18-3.66-1.11-8.19-4-9.79,2.04,2.41,2.54,6.97.65,9.56-.85,1.16-1.98,1.91-3.12,2.57-1.94,1.12-3.96,2.03-6.03,2.71-2.43.8-4.96,1.31-7.15,2.82-.92.63-1.79,1.47-2.28,2.63-.61,1.43-.57,3.14-.48,4.76.21,3.6.62,7.18,1.23,10.72.22,1.27-.1,4.45-.26,4.33-1.22-.89-2.71-1.9-3.45-2.62Z"/>
    <path d="m113.66,139.02c.74.45,2.61,1.54,3.25,2.04,1.69,1.32,2.6,2.11,4.01,3.52.8.8,2,1.55,3.27,2.17,1.62.79,3.88,1.1,6.05,1.33,2.64.28,5.49.29,8.29.36.33-.22,2.18-.31,1.76-.48s.07-.37-.46-.41c-1.64-.12-6.68-.05-8.32-.17-1.01-.08-2.02-.15-2.99-.31-3.42-.58-5.79-2.15-7.79-3.69-2.34-1.81-4.53-3.73-7.67-5.21-.77-.36-1.6-.71-2.5-.99,1.4.58,1.91,1.12,3.09,1.84Z"/>
    <path d="m162.89,139.02c-.74.45-2.61,1.54-3.25,2.04-1.69,1.32-2.6,2.11-4.01,3.52-.8.8-2,1.55-3.27,2.17-1.62.79-3.88,1.1-6.05,1.33-2.64.28-7.76.46-11.11.28-.33-.22,3.01-.2,3.43-.37s-1.07-.41-.55-.45c1.64-.12,5.32-.05,6.96-.17,1.01-.08,2.02-.15,2.99-.31,3.42-.58,5.79-2.15,7.79-3.69,2.34-1.81,4.53-3.73,7.67-5.21.77-.36,1.6-.71,2.5-.99-1.4.58-1.91,1.12-3.09,1.84Z"/>
    <path d="m138.38,127.2c-9.47.25-16.13,11.32-25.12,10.63-.5-.04-3.29-.27-3.32-1.15,2.43-.04,5.66.11,8.06-.77,2.32-.85,4.71-2.74,6.91-4.09,8.6-5.26,7.11-6.91,13.47-6.91m0,2.29c10.72.84,16.14,11.23,25.12,10.54.5-.04,2.56.09,2.59-.79-2.43-.04-4.94-.25-7.33-1.13s-4.52-2.64-6.73-3.95c-6.74-4.01-7.89-6.96-13.65-6.96"/>
    <path d="m165.89,154.73c.86-.07,1.72-.19,2.56-.45,3.24-.97,6.01-4,7.14-7.82.31-1.03.5-2.1.64-3.18.79-5.88.09-12.31-2.95-16.99-2.2-3.37-5.56-5.62-9.09-5.94-.72-.07-1.45-.05-2.15.14-.77.21-1.5.62-2.21,1.04-2.45,1.42-4.91,2.83-7.36,4.25,3.35.27,6.47-2.21,9.82-2.49,4.07-.34,8.03,2.8,9.98,7.16s2.04,9.69.88,14.45c-.42,1.72-1.03,3.45-2.16,4.61-.6.62-1.32,1.04-2.06,1.39-3.66,1.71-11.1,1.26-14.83-.07-.1-.04-.94,1.68-.78,1.78.78.5,5.09,1.53,5.96,1.71,2.18.46,4.4.6,6.61.42Z"/>
    <path d="m158.64,111.4c.53-3.56,2.2-6.99,4.8-8.62.31-.2.69-.47.68-.91,0-.27-.18-.49-.33-.67-2.7-3.19-6.28-5.75-9.84-7.1-.44,1.18-.95,2.31-1.91,2.83,2.96.99,5.61,2.15,8.01,4.52-.99.95-1.86,1.82-2.44,3.19-.56,1.32-.95,2.93-1.02,4.41-.18,3.64.18,10.74,1.02,14.23.21.87,1.26.77,1.72-.68,0,0-.3-1.58-.66-4.72-.25-2.15-.33-4.34-.01-6.49Z"/>
    <path d="m154.95,88.81c-.22,2.76-.49,5.68-1.86,7.87-1.42,2.27-3.74,3.32-5.99,3.98,1.57-.6,2.52-2.52,3.32-4.3,1.2-2.65,2.44-5.47,2.39-8.52-.25,1.56-1.24,2.78-2.33,3.61s-2.3,1.38-3.4,2.2-2.1,2.01-2.38,3.56c-.17-1.35-.15-2.73.05-4.06.13-.9.35-1.78.42-2.69.16-1.94-.35-3.94-1.38-5.41.21.94.04,2-.44,2.77s-1.27,1.24-2.05,1.21c.07.84.02,1.7-.15,2.52-.35-3.07-1.99-5.76-4.09-7.44s-4.59-2.44-7.07-2.69c1.99-.82,4.2-.8,6.19.06s3.72,2.56,4.87,4.74c.95-.02,1.77-1.06,1.91-2.24s-.32-2.37-1.04-3.15c1.27.53,2.44,1.44,3.38,2.65,1.44,1.86,2.29,4.7,1.51,7.09-.3.91-.81,1.72-.95,2.69.69-1.24,1.97-1.71,2.99-2.52.57-.45,1.07-1.03,1.55-1.62.84-1.05,1.62-2.21,2.09-3.56s.61-2.95.15-4.32c.42,1.27,1.63,1.83,2.05,3.06.48,1.4.36,3.03.25,4.51Z"/>
    <path d="m150.29,119.34c.21.33.42.69.46,1.1.06.77-.5,1.38-1,1.85-.34.31-.68.62-1.02.94-.09.08-.19.16-.29.12-.05-.02-.09-.06-.13-.1-2.88-3.2-5.67-6.51-8.38-9.93-.11-.14-.23-.3-.24-.5,0-.19.09-.36.18-.5.58-.93,1.24-1.77,1.97-2.53.41-.43.57-.67,1.02-.22.39.4.76.84,1.13,1.27,1.44,1.67,2.82,3.43,4.12,5.26.75,1.05,1.47,2.13,2.17,3.24Z"/>
    <path d="m143.65,122.46c-.28.24-.58.48-.91.5-.62.03-1.08-.7-1.42-1.36-.23-.44-.46-.88-.69-1.32-.06-.11-.12-.24-.08-.37.02-.06.05-.11.09-.15,2.75-3.37,5.58-6.63,8.5-9.77.12-.13.26-.27.42-.26.15,0,.28.13.39.26.71.78,1.34,1.65,1.9,2.6.32.54.5.76.11,1.28-.34.46-.73.89-1.09,1.32-1.43,1.68-2.93,3.28-4.49,4.78-.89.86-1.81,1.69-2.74,2.49Z"/>
    <path d="m123.47,120.94c-.19.35-.38.73-.38,1.14-.01.78.58,1.33,1.11,1.74.36.28.71.55,1.07.83.09.07.2.14.3.1.05-.02.08-.07.12-.12,2.66-3.47,5.24-7.05,7.72-10.73.1-.15.21-.32.21-.52,0-.19-.11-.35-.21-.48-.64-.87-1.35-1.65-2.12-2.32-.44-.39-.61-.61-1.03-.12-.37.43-.7.92-1.04,1.38-1.33,1.81-2.59,3.7-3.77,5.66-.68,1.12-1.33,2.27-1.96,3.44Z"/>
    <path d="m130.96,122.79c.29.21.61.42.94.4.62-.03,1.03-.81,1.33-1.49.2-.46.4-.92.6-1.38.05-.12.1-.25.06-.37-.02-.06-.06-.1-.1-.14-2.95-3.09-5.99-6.05-9.1-8.9-.13-.12-.27-.24-.43-.22-.15.02-.27.16-.37.3-.65.85-1.23,1.78-1.73,2.78-.28.57-.45.8-.03,1.29.37.43.78.81,1.17,1.21,1.53,1.54,3.13,2.98,4.78,4.32.95.77,1.91,1.51,2.89,2.21Z"/>
    <path d="m134.13,131.49c-.77.22-1.56.44-2.19.97-.09.07-.18.17-.17.29.01.16.18.23.32.26.69.14,1.41.08,2.07-.18.34-.13.68-.33.92-.62.96-1.15-.29-.9-.95-.72Z"/>
    <path d="m141.66,131.49c.77.22,1.56.44,2.19.97.09.07.18.17.17.29-.01.16-.18.23-.32.26-.69.14-1.41.08-2.07-.18-.34-.13-.68-.33-.92-.62-.96-1.15.29-.9.95-.72Z"/>
    <path d="m111.04,137.46c4.91,2.61,8.44,7.87,13.5,10.11,1.93.85,4.01,1.23,6.07,1.46,5.21.58,10.47.29,15.71,0,1.91-.11,3.88-.23,5.63-1.12,1.09-.56,2.05-1.4,2.99-2.24,2.44-2.19,4.83-4.45,7.48-6.32.91-.64,1.86-1.17,2.79-1.75-.14,0-.28.03-.41.04-.4.08-.8.15-1.2.23-.96.18-1.95.6-2.82,1.1-.85.49-1.65,1.09-2.45,1.68-3.05,2.26-6.3,4.48-9.94,4.95-4.45.58-9.2.6-13.67.32-4.48-.28-8.97-1.26-13-3.46-1.26-.69-2.47-1.5-3.77-2.11-2.29-1.08-4.73-1.56-6.91-2.88Z"/>
    <path class="cls-7" d="m154.85,148.66c1.95,3.16,6.92,6.64,10.64,6.64"/>
    <path d="m138.29,169.45c-5.33,0-8.23-3.5-10.03-6.68s-3.16-6.66-5.13-9.72c-3.84-5.97-6.69-8.06-13.01-16.03,5.08,3.85,10.17,9.13,14.05,14.28,1.49,1.98,5.77,10.52,7.55,12.26,1.73,1.69,2.98,1.97,6.67,2.18,4.74-.14,6.34-2.94,8.65-6.05s4.87-7.44,7.09-10.62c2.9-4.16,6.64-8.91,11.91-12.1-8.35,9.29-9.18,10.25-12.89,16.18-1.9,3.05-3.22,6.5-4.96,9.66s-4.21,6.64-9.69,6.64m-8.4-9.77"/>
    <path d="m159.54,138.89c-.05.47-.24.92-.44,1.35-1.18,2.45-5.4,4.82-6.37,7.21,1.8-1.35,2.21-1.65,2.66-2.05.57-.51,1.02-.96,1.53-1.43.61-.56,1.29-1.04,2.06-1.35-2.12,2.22-3.92,4.74-5.34,7.46.7-.53,1.4-1.05,1.99-1.69.57-.61,1.03-1.31,1.55-1.97.45-.57.94-1.11,1.42-1.65.73-.8,1.45-1.61,2.11-2.47,1.25-1.63,2.33-3.49,4.09-4.55.22-.13.49-.3.49-.57-1.67.07-3.37.14-4.98-.28-1.03-.27-2.18-.93-3.25-.89.38.28.89.41,1.3.66.79.48,1.29,1.26,1.19,2.22Z"/>
    <path d="m122.11,135.09c-1.75.96-3.55,1.84-5.38,2.62-.21.09-.43.19-.59.35s-.25.43-.15.64c.04.09.11.16.18.23,1,.94,2.36,1.48,3.28,2.5.34.38.62.83.89,1.27.77,1.26,1.55,2.52,2.32,3.78-1.3-.8-2.59-1.6-3.89-2.4-.11.52.32.97.69,1.34,1.44,1.42,2.65,3.08,3.56,4.89-.46-.6-1.14-.99-1.7-1.5-.48-.43-.87-.95-1.3-1.44-.76-.86-1.64-1.61-2.48-2.4-1.21-1.14-2.33-2.36-3.45-3.59-.49-.53-.98-1.07-1.47-1.6-.84-.92-1.69-1.85-2.4-2.88.66-.15,1.35-.1,2.03-.09,3.62.05,7.25-.94,10.34-2.81,0,.22-.1.44-.27.58"/>
    <path class="cls-11" d="m128.8,159.38c.72,1.41,1.82,3.03,2.91,4.17,2.1,2.18,4.79,2.28,7.81,2.09,1.32-.09,2.23-.72,2.99-1.01,2.63-1.01,4.64-4.68,6.12-7.08,4.2-6.82,4.68-6.81,10.34-14.93-2.3.73-4.73,3.53-6.51,4.64-2.59,1.62-5.15,1.74-8.45,1.9-3.65.18-4.82.28-6.62.21-5.63-.22-7.53-.34-11.11-1.2-2.21-.53-2.75-1.25-5.3-2.73-2.02-1.18-2.29-1.5-2.34-1.37-.23.64,1.19,1.72,2.51,3.38,1.49,1.88,2.69,3.55,4,5.55,1.48,2.28,2.4,3.97,3.64,6.38Z"/>
    <path d="m138.46,161.14c.25.02.32-.33.3-.57-.29-4.16-.38-7.93.04-12.23-1.03-.19-3.05-.6-4.09-.55.64.59,1.41.84,1.7,1.7.41,1.23.58,2.61.83,3.88.5,2.57.91,5.17,1.22,7.77Z"/>
    <path class="cls-8" d="m125.82,151.73c2.17,2.74,3.56,6.02,5.71,8.77.88,1.12,1.91,2.17,3.2,2.78,1.13.53,2.4.7,3.65.7,1.11,0,2.24-.11,3.28-.48,2.26-.81,3.93-2.71,5.33-4.66s2.67-4.04,4.53-5.55c-.57,3.38-2.06,6.64-4.43,9.13s-5.62,4.16-9.05,4.41c-.98.07-1.98.02-2.89-.32-.69-.26-1.31-.67-2.01-.9-.57-.19-1.18-.26-1.76-.44-1.88-.6-3.15-2.37-3.89-4.2s-1.09-3.8-1.9-5.6c-2.23-4.96-7.72-8.2-8.94-13.5,1.93,1.09,2.57,2.93,4.04,4.5,1.69,1.8,3.58,3.42,5.12,5.37Z"/>
    <path class="cls-4" d="m152.92,149.52c-.22,1.61-.99,3.08-1.75,4.51,2.54-4.75,7.09-8.27,9.23-13.21-2.74,1.71-5.61,3.23-8.58,4.52-.85.37-1.71.73-2.47,1.26-.96.67-1.84,1.65-3.01,1.72,1.29.45,2.53.24,3.83,0,1.11-.21,2.98-.51,2.75,1.21Z"/>
    <path class="cls-4" d="m115.64,141.21c1.16.89,2.65,1.17,4.03,1.67,1.93.69,3.66,1.79,5.44,2.78,1.04.58,2.39.95,3.33,1.65-1.16.25-2.51-.14-3.71,0-3.12.38-1.76,2.56-.88,4.72-2.98-3.37-5.62-7.14-8.2-10.82Z"/>
    <path class="cls-2" d="m137.61,159.43c-.41-1.39-.78-2.78-1.11-4.19-.28-1.2-.54-2.42-.91-3.6-.15-.46-.32-.93-.66-1.27-.29-.29-.67-.45-1.05-.6-.77-.29-1.56-.52-2.35-.75,1.5.19,3,.28,4.51.26.1,0,.2,0,.28.06.08.06.11.16.13.26.75,3.42,1.5,7.1,1.86,10.65.02.22.15.89.15.89-.13-.3-.76-1.42-.85-1.71Z"/>
    <path class="cls-2" d="m138.65,159.4c-.23-3.64-.61-6.39-.71-10.06.97.06,1.89-.01,2.84-.07,2.7-.15,5.26-.13,8.35-.65-1.35.26-2.97.73-4.32.99-1.29.25-2.59.5-3.81,1-.41.17-.82.37-1.1.71-.25.3-.43.66-.48,1.04-.12.84-.12,1.79-.12,3.31v1.87c0,.85-.02,1.48-.1,2.32-.02.21-.65,1.59-.55,1.2.17-.69.03-1.45.02-1.67Z"/>
  </g>
</svg>