<?xml version="1.0" encoding="UTF-8"?>
<svg id="Layer_1" data-name="Layer 1" xmlns="http://www.w3.org/2000/svg" viewBox="0 0 117.34 133.2">
  <defs>
    <style>
      .cls-1 {
        opacity: .65;
      }

      .cls-1, .cls-2 {
        isolation: isolate;
      }

      .cls-3 {
        fill: #fff;
      }

      .cls-4 {
        fill: #3d3d3d;
      }

      .cls-5 {
        fill: #1e2323;
      }

      .cls-6 {
        fill: none;
      }

      .cls-7 {
        fill: #6fccdd;
      }

      .cls-2 {
        opacity: .42;
      }

      .cls-8 {
        fill: #ed186a;
      }

      .cls-9 {
        fill: #595959;
      }

      .cls-10 {
        fill: #ed1f24;
      }
    </style>
  </defs>
  <g id="Layer_7" data-name="Layer 7">
    <path d="m27.51,67.75c-.43.06-.9.17-1.16.51-.26.38-.15.9.11,1.26s.67.6,1.07.83c1.78,1.05,3.46,2.27,5,3.64-1.5-.44-2.92-1.08-4.21-1.95,1.27.21,2.48.71,3.55,1.43-.18-.14-.46.09-.46.32s.17.42.32.6c.4.45.8.9,1.21,1.34-1.27-.95-2.56-1.92-4.04-2.51-.31-.12-.67-.21-.92,0-.14.12-.18.3-.21.47-.11.8.31,1.55.72,2.24.95,1.56,1.96,3.1,3.03,4.57-4.65-3.35-6.93-9.05-10.94-13.12,4.56.42,9.12-.59,13.57-1.59-2.3.95-4.19,1.61-6.66,1.98h.02Z"/>
    <path class="cls-3" d="m36.22,108.81c-.64-1.68-2.72.23-4.15-.53-1.56-.83-3.35-.03-5.05.27-4.56.78-8.91-2.21-12.82-5.08-2.85-2.09-5.82-4.33-7.44-7.8-1.25-2.69-1.58-5.85-1.64-8.91-.11-5.21.41-10.43,1.38-15.51.86-4.52,2.74-9.71,6.61-10.49,2.3-.47,4.5,2.16,6.46,1.65s2.23-4.33,2.39-6.22c.54-6.16-.9-12.29-.93-18.46,0-1.26.06-2.57.55-3.7.78-1.79,2.45-2.72,4.01-3.55,4.48-2.36,8.95-4.72,13.44-7.08,4.19-2.21,10.62-4.81,12.09-9.95,1.19-4.18-1.94-9.05-4.33-12.43,6.27-2.27,13.73,1.67,16.47,8.73,2.33-.06,4.55-1.92,5.36-4.49,2.22,4.61,2.88,10.23,1.81,15.39,1.5-2.54,4.16-3.61,6.53-4.93s4.84-3.46,5.05-6.54c.54,4.1.14,8.37-1.13,12.23,4.73,1.97,9.37,4.21,13.93,6.69-4.55,11.03-6.08,23.75-4.32,35.84,5.85-4.33,14.02-2.03,18.9,3.73,4.88,5.76,6.93,14.14,7.35,22.27.23,4.36-.05,9.05-2.23,12.56-2.14,3.46-5.77,5.18-9.32,6.1-5.45,1.4-11.19,1.28-16.59-.38"/>
    <path class="cls-4" d="m44.44,74.24c7.7-2.95,8.77-6.69,16.79-5.43,6.41,1.01,15.98,8.94,22.01,11.69,4.53,2.06,8.51,4.84,13.15,6.49-3.93.14-7.54,2.51-10.8,5.08-3.27,2.58-6.46,5.47-10.19,6.9-2.56.98-5.26,1.22-7.96,1.38-7.12.45-14.26.48-21.35-.39-2.6-.32-5.2-.77-7.68-1.74-2.33-.92-4.48-2.3-6.64-3.68-2.75-1.62-5.43-3.46-8.13-5.18-2.25-1.44-4.27-3.23-7.28-4.78,2.3.24,2.48.05,3.63,0,2.31-.09,4.62-.54,6.87-1.1,4.62-1.13,13.11-7.53,17.6-9.24h0Z"/>
    <path class="cls-7" d="m53.54,15.45c-.28,1.91-.92,3.77-1.97,5.26-1.29,1.8-3.09,2.98-4.9,3.98-3.26,1.79-6.69,3.14-10.12,4.4-2.89,1.07-5.97,2.24-7.84,5.03-2.07,3.11-2.1,7.42-2.05,11.38.06,3.68.11,7.36.17,11.03.05,2.93.08,5.95-.81,8.69-.08.24-.18.51-.37.63-.21.14-.47.08-.7,0-1.71-.48-3.41-.95-5.13-1.43,1.91-6.31,2.07-13.35.43-19.76-.75-2.98-1.9-5.98-1.48-9.03.44-3.2,2.54-5.79,4.96-7.32s5.13-2.24,7.77-3.08c4.35-1.38,8.6-3.2,12.69-5.43,1.73-.93,3.5-2.03,4.53-3.91.52-.93.81-2,1.04-3.08.8-3.89-.55-9.57-3.63-11.92,4.48,2.46,8.25,8.73,7.42,14.53l-.02.02Z"/>
    <path class="cls-7" d="m16.3,69.76c-.73.54-1.32,1.35-1.82,2.18-1.82,2.93-3.15,6.3-3.87,9.83-.46,2.25-.69,4.61-.41,6.91.24,2.09.89,4.07,1.56,6.01.69,2,1.42,4.04,2.65,5.65,1.82,2.37,4.51,2.68,7.16,3.37s7.87,1.28,12.14-1.19c6.29,9.42-10.94,4.79-14.25,3.67-3.08-1.07-6.15-2.27-8.89-4.22s-5.16-4.72-6.4-8.21c-.99-2.78-1.18-5.88-.99-8.9.51-7.75,3.61-15.22,8.51-20.42.84-.89,1.79-1.76,2.91-1.92.69-.11,1.38.06,2.05.24,1.67.42,12.58,4.49,12.58,4.49-3.6,2.65-11.17,1.26-12.92,2.52v-.02Z"/>
    <path class="cls-7" d="m67.85,9.93c-.06,1.56-.6,3.11-1.5,4.25s-1.82,1.77-3.15,1.94c.34-1.73-.17-3.46-.81-5.06-.05-.11-.08-.21-.05-.32.03-.14.17-.18.28-.23.98-.36,1.9-.95,2.71-1.7,1.13-1.05,1.52-2.12,1.39-3.82.69,1.34,1.19,3.38,1.15,4.93h-.02Z"/>
    <path class="cls-7" d="m74.39,19.15c1.29-.92,2.66-1.71,3.75-2.95,1.59-1.79,2.43-3.13,2.92-5.65-.89,2.27-2.66,2.69-4.5,3.94s-3.81,2.22-5.51,3.73c-.84.75-1.61,1.64-2.1,2.74-.31.71-.58,2.75-.32,3.55,0,0,1.24-1.44,1.82-2.1,1.32-1.5,2.37-2.13,3.93-3.26v.02Z"/>
    <path class="cls-9" d="m36.25,82.17c-1.07.72-4.53,2.5-4.8,3.93-.28,1.4,4.27,1.28,7.04,3.2,3.61,2.51,4.88,5.65,8.88,6.57,5.91,1.35,11.94,1.88,17.94,2.4-1.62.98-3.5,1.04-5.33,1.07-4.44.08-8.91.14-13.3-.57-3.05-.5-6.06-1.37-8.97-2.6-3.27-1.4-6.41-3.25-9.53-5.09-1.74-1.02-3.49-2.06-5.22-3.08-1.81-1.07-3.61-2.13-5.42-3.2,5.34.05,11.74-.71,16.39-3.55,5.26-3.22,9.58-6.91,14.55-8.88,1.35-.54,2.91-1.88,4.25-2.42.9-.36,5.05-.54,5.97-.41-6.23,1.41-9,3.04-9.86,3.61-3.54,2.36-4.41,3.18-6.18,4.48-3.14,2.1-2.77,1.83-6.42,4.55h0Z"/>
    <path class="cls-5" d="m82.19,83.09c.44.38.9,1.38.7,1.98-.17.53-3.35,1.58-3.75,1.91-.78.65-1.78,1.67-1.78,2.78s-.4,1.86-.6,2.96c-.26,1.5-1.09,2.25-2.2,3.04s-2.39,1.17-3.66,1.43c-2.36.47-4.99.74-8.34,1.02.26.77-.14.68.55.77,5.65.68,11.62,1.29,16.73-1.61,1.24-.71,2.39-1.59,3.54-2.46,4.09-3.1,8.25-6.04,12.49-8.82-.66.44-3.43-.9-4.21-1.16-1.5-.47-2.69-1.92-4.18-2.46-2.95-1.1-5.59-5.02-8.49-6.25-5.66-2.39-13.05-6.87-19.07-7.65-1.59,0,.51.93,3.44,1.86,9.06,2.87,9.26,4.64,18.84,12.7l-.02-.03Z"/>
    <path class="cls-8" d="m79.71,28.09c.26-.14.52-.27.81-.24.21.02.43.15.61.27,1.79,1.13,3.58,2.27,5.37,3.4-1.44.81-2.31,2.66-2.57,4.52s-.23,4.52-.26,6.42c-.14,9.08,1.48,14.77,3.35,22.23,1.01-2.68,2.33.62,2.08-2.31-.23-2.69-.37-12.13-.11-14.8.26-2.61.52-5.28,1.38-7.71,1.21-3.43,3.49-6.13,5.71-8.75-4.39-3.74-9.17-6.84-14.2-9.2l-4.22,4.4c-.9.95-2.07,1.97-5.36,3.52,1.96.15,5.62-.81,7.41-1.73v-.02Z"/>
    <path class="cls-8" d="m92.6,66.5c1.84-.15,3.7-.3,5.51.14,4.55,1.1,8,5.86,9.29,11.12,1.29,5.26.72,10.91-.44,16.22-.69,3.14-1.68,6.39-3.8,8.46-3.01,2.96-14.34.98-18.24.57,2.1-6.54.66.72,3.58-5.35-3.76,3.88,2.75-4.93,0,0-1.29,2.28-5.56,5.5-5.57,8.25,6.08,1.94,16.79,2.33,22.69-.24,1.65-.72,3.27-1.62,4.55-3.05,2.43-2.72,3.21-6.87,3.66-10.79.28-2.45.47-4.93.57-7.41.09-2.15.11-4.34-.37-6.43-.44-1.92-1.3-3.67-2.17-5.37-1.04-2.04-2.14-4.09-3.61-5.74-3.47-3.89-8.65-5.11-13.41-4.48-4.16.54-10.31,3.5-14.31,5.15,3.52.23,8.52-.8,12.07-1.08v.03Z"/>
    <path d="m14.15,57.23c-3.24,4.42-7.58,7.6-10.45,12.38-4.44,7.39-4.64,17.72-1.91,26.27.78,2.43,1.79,4.79,3.24,6.7,1.85,2.43,4.35,4,6.87,5.21,6.6,3.16,19.53,3.35,26.54,2.04-.35-1.31-2.26-2.33-3.01-3.35-3.55-.24-11.39-.2-14.87-1.05-3.4-.83-6.86-2.01-9.53-4.7-4.04-4.09-5.52-11.17-4.55-17.45.98-6.3,4.1-11.84,7.9-16.26.44-.51.9-1.02,1.48-1.22.7-.23,1.45.05,2.16.3,3.73,1.32,7.33,1.52,11.2,1.14-1.97-.74-5.48-2.89-6.72-4,0,0,.66-5.15.58-6.46-.4-6.42-.8-9.32-1.21-15.73-.15-2.39.08-4.57,1.03-6.66,1.22-2.65,3.8-3.77,6.15-4.7,4.01-1.56,8.02-3.14,12.03-4.7,4.44-1.74,9.41-4.06,11.16-9.35,1.81-5.5-1.7-12.31-6.12-14.71,3.12,3.62,3.89,10.47.99,14.37-1.3,1.74-3.03,2.87-4.77,3.86-2.97,1.68-6.06,3.05-9.23,4.07-3.72,1.2-7.59,1.97-10.94,4.24-1.41.95-2.74,2.21-3.49,3.95-.93,2.15-.87,4.72-.73,7.15.32,5.41.95,10.79,1.88,16.11.34,1.91-.15,6.69-.4,6.51-1.87-1.34-4.15-2.86-5.28-3.94l.02-.03Z"/>
    <path d="m21.13,87.47c1.13.68,3.99,2.31,4.97,3.07,2.59,1.98,3.98,3.17,6.14,5.29,1.22,1.2,3.06,2.33,5,3.26,2.48,1.19,5.94,1.65,9.26,2,4.04.42,8.4.44,12.69.54.51-.33,3.34-.47,2.69-.72s.11-.56-.7-.62c-2.51-.18-10.22-.08-12.73-.26-1.55-.12-3.09-.23-4.58-.47-5.23-.87-8.86-3.23-11.92-5.55-3.58-2.72-6.93-5.61-11.74-7.83-1.18-.54-2.45-1.07-3.83-1.49,2.14.87,2.92,1.68,4.73,2.77h.02Z"/>
    <path d="m96.47,87.47c-1.13.68-3.99,2.31-4.97,3.07-2.59,1.98-3.98,3.17-6.14,5.29-1.22,1.2-3.06,2.33-5,3.26-2.48,1.19-5.94,1.65-9.26,2-4.04.42-11.88.69-17,.42-.51-.33,4.61-.3,5.25-.56s-1.64-.62-.84-.68c2.51-.18,8.14-.08,10.65-.26,1.55-.12,3.09-.23,4.58-.47,5.23-.87,8.86-3.23,11.92-5.55,3.58-2.72,6.93-5.61,11.74-7.83,1.18-.54,2.22-1.19,3.6-1.61-2.14.87-2.7,1.81-4.5,2.89l-.02.02Z"/>
    <path d="m58.96,69.7c-15.78-.02-28.51,22.54-43.52,14.25,16.58,3.74,31.29-18.61,43.52-17.69m0,3.44c17.51.93,27.5,21.15,42.41,14.65-16.25,2.03-29.03-18.01-42.41-18.09"/>
    <path d="m101.06,111.08c1.32-.11,2.63-.29,3.92-.68,4.96-1.46,9.2-6.01,10.93-11.75.47-1.55.77-3.16.98-4.78,1.21-8.84.14-18.5-4.51-25.53-3.37-5.06-8.51-8.45-13.91-8.93-1.1-.11-2.22-.08-3.29.21-1.18.32-2.3.93-3.38,1.56-3.75,2.13-7.51,4.25-11.26,6.39,5.13.41,9.9-3.32,15.03-3.74,6.23-.51,12.29,4.21,15.27,10.76,2.98,6.55,3.12,14.56,1.35,21.72-.64,2.58-1.58,5.18-3.31,6.93-.92.93-2.02,1.56-3.15,2.09-5.6,2.57-16.99,1.89-22.69-.11-.15-.06-1.44,2.52-1.19,2.68,1.19.75,7.79,2.3,9.12,2.57,3.34.69,6.73.9,10.12.63v-.02Z"/>
    <path d="m89.97,45.96c.81-5.35,3.37-10.5,7.35-12.95.47-.3,1.06-.71,1.04-1.37,0-.41-.28-.74-.51-1.01-4.13-4.79-9.61-8.64-15.06-10.67-.67,1.77-1.45,3.47-2.92,4.25,4.53,1.49,8.59,3.23,12.26,6.79-1.52,1.43-2.85,2.74-3.73,4.79-.86,1.98-1.45,4.4-1.56,6.63-.28,5.47.28,16.14,1.56,21.39.32,1.31,1.93,1.16,2.63-1.02,0,0-.46-2.37-1.01-7.09-.38-3.23-.51-6.52-.02-9.75l-.03.02Z"/>
    <path d="m84.32,12.01c-.34,4.15-.75,8.54-2.85,11.83-2.17,3.41-5.72,4.99-9.17,5.98,2.4-.9,3.86-3.79,5.08-6.46,1.84-3.98,3.73-8.22,3.66-12.8-.38,2.34-1.9,4.18-3.57,5.43s-3.52,2.07-5.2,3.31-3.21,3.02-3.64,5.35c-.26-2.03-.23-4.1.08-6.1.2-1.35.54-2.68.64-4.04.24-2.92-.54-5.92-2.11-8.13.32,1.41.06,3.01-.67,4.16s-1.94,1.86-3.14,1.82c.11,1.26.03,2.55-.23,3.79-.54-4.61-3.05-8.66-6.26-11.18s-7.02-3.67-10.82-4.04c3.05-1.23,6.43-1.2,9.47.09s5.69,3.85,7.45,7.12c1.45-.03,2.71-1.59,2.92-3.37s-.49-3.56-1.59-4.73c1.94.8,3.73,2.16,5.17,3.98,2.2,2.8,3.5,7.06,2.31,10.66-.46,1.37-1.24,2.58-1.45,4.04,1.06-1.86,3.01-2.57,4.58-3.79.87-.68,1.64-1.55,2.37-2.43,1.29-1.58,2.48-3.32,3.2-5.35s.93-4.43.23-6.49c.64,1.91,2.49,2.75,3.14,4.6.73,2.1.55,4.55.38,6.78h.02Z"/>
    <path d="m77.19,57.89c.32.5.64,1.04.7,1.65.09,1.16-.77,2.07-1.53,2.78-.52.47-1.04.93-1.56,1.41-.14.12-.29.24-.44.18-.08-.03-.14-.09-.2-.15-4.41-4.81-8.68-9.78-12.82-14.92-.17-.21-.35-.45-.37-.75,0-.29.14-.54.28-.75.89-1.4,1.9-2.66,3.01-3.8.63-.65.87-1.01,1.56-.33.6.6,1.16,1.26,1.73,1.91,2.2,2.51,4.32,5.15,6.3,7.91,1.15,1.58,2.25,3.2,3.32,4.87h.02Z"/>
    <path d="m67.03,62.58c-.43.36-.89.72-1.39.75-.95.05-1.65-1.05-2.17-2.04-.35-.66-.7-1.32-1.06-1.98-.09-.17-.18-.36-.12-.56.03-.09.08-.17.14-.23,4.21-5.06,8.54-9.96,13.01-14.68.18-.2.4-.41.64-.39.23,0,.43.2.6.39,1.09,1.17,2.05,2.48,2.91,3.91.49.81.77,1.14.17,1.92-.52.69-1.12,1.34-1.67,1.98-2.19,2.52-4.48,4.93-6.87,7.18-1.36,1.29-2.77,2.54-4.19,3.74h.02Z"/>
    <path d="m36.14,60.3c-.29.53-.58,1.1-.58,1.71-.02,1.17.89,2,1.7,2.61.55.42,1.09.83,1.64,1.25.14.11.31.21.46.15.08-.03.12-.11.18-.18,4.07-5.21,8.02-10.6,11.81-16.13.15-.23.32-.48.32-.78s-.17-.53-.32-.72c-.98-1.31-2.07-2.48-3.24-3.49-.67-.59-.93-.92-1.58-.18-.57.65-1.07,1.38-1.59,2.07-2.04,2.72-3.96,5.56-5.77,8.51-1.04,1.68-2.04,3.41-3,5.17h-.03Z"/>
    <path d="m47.61,63.08c.44.32.93.63,1.44.6.95-.05,1.58-1.22,2.04-2.24.31-.69.61-1.38.92-2.07.08-.18.15-.38.09-.56-.03-.09-.09-.15-.15-.21-4.51-4.64-9.17-9.09-13.93-13.38-.2-.18-.41-.36-.66-.33-.23.03-.41.24-.57.45-.99,1.28-1.88,2.68-2.65,4.18-.43.86-.69,1.2-.05,1.94.57.65,1.19,1.22,1.79,1.82,2.34,2.31,4.79,4.48,7.32,6.49,1.45,1.16,2.92,2.27,4.42,3.32l-.02-.02Z"/>
    <path d="m52.46,76.15c-1.18.33-2.39.66-3.35,1.46-.14.11-.28.26-.26.44.02.24.28.35.49.39,1.06.21,2.16.12,3.17-.27.52-.2,1.04-.5,1.41-.93,1.47-1.73-.44-1.35-1.45-1.08h0Z"/>
    <path d="m63.98,76.15c1.18.33,2.39.66,3.35,1.46.14.11.28.26.26.44-.02.24-.28.35-.49.39-1.06.21-2.16.12-3.17-.27-.52-.2-1.04-.5-1.41-.93-1.47-1.73.44-1.35,1.45-1.08h0Z"/>
    <path d="m17.12,85.12c7.51,3.92,12.92,11.83,20.66,15.19,2.95,1.28,6.14,1.85,9.29,2.19,7.97.87,16.02.44,24.04,0,2.92-.17,5.94-.35,8.62-1.68,1.67-.84,3.14-2.1,4.58-3.37,3.73-3.29,7.39-6.69,11.45-9.5,1.39-.96,2.85-1.76,4.27-2.63-.21,0-.43.05-.63.06-.61.12-1.22.23-1.84.35-1.47.27-2.98.9-4.32,1.65-1.3.74-2.53,1.64-3.75,2.52-4.67,3.4-9.64,6.73-15.21,7.44-6.81.87-14.08.9-20.92.48-6.86-.42-13.73-1.89-19.89-5.2-1.93-1.04-3.78-2.25-5.77-3.17-3.5-1.62-7.24-2.34-10.57-4.33h0Z"/>
    <path class="cls-6" d="m84.17,101.95c2.98,4.75,10.59,9.98,16.28,9.98"/>
    <path d="m58.82,133.2c-8.16,0-12.59-5.26-15.35-10.04s-4.84-10.01-7.85-14.61c-5.88-8.97-10.24-12.11-19.91-24.09,7.77,5.79,15.56,13.72,21.5,21.46,2.28,2.98,8.83,15.81,11.55,18.42,2.65,2.54,4.56,2.96,10.21,3.28,7.25-.21,9.7-4.42,13.24-9.09,3.54-4.67,7.45-11.18,10.85-15.96,4.44-6.25,10.16-13.39,18.23-18.18-12.78,13.96-14.05,15.4-19.73,24.32-2.91,4.58-4.93,9.77-7.59,14.52-2.66,4.75-6.44,9.98-14.83,9.98"/>
    <path d="m93.8,86.31c-.27,1.29-1.79,1.6-4.44,3.7-1.81,3.68-5.8,6.21-7.28,9.8,2.75-2.03,3.38-2.48,4.07-3.08.87-.77,1.56-1.44,2.34-2.15.93-.84,1.97-1.56,3.15-2.03-3.24,3.34-6,7.12-8.17,11.21,1.07-.8,2.14-1.58,3.05-2.54.87-.92,1.58-1.97,2.37-2.96.69-.86,1.44-1.67,2.17-2.48,1.12-1.2,2.22-2.42,3.23-3.71,2.33-2.58,3.5-3.86,5.54-6.09.8-.87,1.19-1.21,1.67-1.68-2.74.04-5.43.07-7.9-.56-1.58-.41-3.27-1.18-4.9-1.12.58.42-.8,1.05-.17,1.42,1.21.72,5.24,1.39,5.28,2.26h0Z"/>
    <path d="m34.06,81.56c-2.68,1.44-5.43,2.77-8.23,3.94-.32.14-.66.29-.9.53s-.38.65-.23.96c.06.14.17.24.28.35,1.53,1.41,3.61,2.22,5.02,3.76.52.57.95,1.25,1.36,1.91,1.18,1.89,2.37,3.79,3.55,5.68-1.99-1.2-3.96-2.4-5.95-3.61-.17.78.49,1.46,1.06,2.01,2.2,2.13,4.06,4.63,5.45,7.35-.7-.9-1.74-1.49-2.6-2.25-.73-.65-1.33-1.43-1.99-2.16-1.16-1.29-2.51-2.42-3.8-3.61-1.85-1.71-3.57-3.55-5.28-5.4-.75-.8-1.33-.94-2.08-1.74-1.29-1.38-3.36-3.72-5.03-5.39,1.44.15,3.25.25,4.29.26,5.54.08,11.09-1.41,15.82-4.22,0,.33-.15.66-.41.87"/>
    <path class="cls-10" d="m44.06,117.85c1.1,2.12,3.23,5.07,4.9,6.79,3.29,2.95,7.82,3.17,10.65,3.12,2.02-.14,4.52-.79,6.58-1.9,4.26-2.38,6.58-6.93,8.85-10.54,6.43-10.25,7.16-10.23,15.82-22.44-3.52,1.1-7.24,5.31-9.96,6.97-3.96,2.43-7.88,2.61-12.93,2.86-5.59.27-7.38.42-10.13.32-8.62-.33-11.52-.51-17-1.8-3.38-.8-4.21-1.88-8.11-4.1-3.09-1.77-3.69-2.24-3.77-2.04-.36.82.97,1.98,2.99,4.47,2.28,2.83,4.54,5.77,6.55,8.78,2.26,3.43,3.67,5.9,5.57,9.53h0Z"/>
    <path d="m59.08,120.71c.38.03.49-.5.46-.86-.44-6.25-.58-11.92.06-18.38-1.58-.29-4.67-.9-6.26-.83.98.89,2.69.02,3.13,1.31.63,1.85.36,5.17.74,7.08.77,3.86,1.39,7.77,1.87,11.68Z"/>
    <path class="cls-2" d="m39.74,106.57c3.32,4.12,5.45,9.05,8.74,13.18,1.35,1.68,2.92,3.26,4.9,4.18,1.73.8,3.67,1.05,5.59,1.05,1.7,0,3.18-.49,4.77-1.05,3.46-1.22,5.26-4.36,7.41-7.29,2.14-2.93,16.87-21.49,19.71-23.76-5.57,7.22-14.94,26.01-18.57,29.76s-8.6,6.25-13.85,6.63c-1.5.11-3.03.03-4.42-.48-1.06-.39-2-1.01-3.08-1.35-.87-.29-1.81-.39-2.69-.66-2.88-.9-4.21-3.66-5.34-6.41s-2.28-5.61-3.52-8.32c-3.41-7.45-11.81-12.32-13.68-20.29,2.95,1.64,3.93,4.4,6.18,6.76,2.59,2.71,5.48,5.14,7.84,8.07l.02-.02Z"/>
    <path class="cls-1" d="m81.21,103.25c-.34,2.42-2.42,5.99-3.59,8.14,4.76-7.86,11.76-13.79,15.03-21.22-4.19,2.57-8.59,4.85-13.13,6.79-1.3.56-2.62,1.1-3.78,1.89-1.47,1.01-2.82,2.48-4.61,2.58,1.97.68,3.87.36,5.86,0,1.7-.32,4.56-.77,4.21,1.82v-.02Z"/>
    <path class="cls-1" d="m24.16,90.76c1.78,1.34,4.06,1.76,6.17,2.51,2.95,1.04,5.6,2.69,8.33,4.18,1.59.87,3.66,1.43,5.1,2.48-1.78.38-3.84-.21-5.68,0-4.77.57-2.69,3.85-1.35,7.09-4.56-5.06-8.6-10.73-12.55-16.26h-.02Z"/>
  </g>
</svg>